<mxfile host="app.diagrams.net" modified="2021-09-01T08:59:57.601Z" agent="5.0 (Macintosh; Intel Mac OS X 10_14_4) AppleWebKit/537.36 (KHTML, like Gecko) Chrome/92.0.4515.159 Safari/537.36" etag="yXuBxNZ_cZyYmE3-k1nO" version="14.9.8" type="github">
  <diagram id="1m9WW-NYbLGptfpkbWfW" name="第 1 页">
    <mxGraphModel dx="4675" dy="2267" grid="1" gridSize="10" guides="1" tooltips="1" connect="1" arrows="1" fold="1" page="1" pageScale="1" pageWidth="827" pageHeight="1169" math="0" shadow="0">
      <root>
        <mxCell id="0" />
        <mxCell id="1" parent="0" />
        <mxCell id="Y3Gp17qmF-3N51zwm5ya-107" style="edgeStyle=orthogonalEdgeStyle;rounded=0;orthogonalLoop=1;jettySize=auto;html=1;exitX=0.5;exitY=0;exitDx=0;exitDy=0;entryX=0.5;entryY=1;entryDx=0;entryDy=0;fontSize=17;" edge="1" parent="1" source="Y3Gp17qmF-3N51zwm5ya-70" target="Y3Gp17qmF-3N51zwm5ya-105">
          <mxGeometry relative="1" as="geometry" />
        </mxCell>
        <mxCell id="Y3Gp17qmF-3N51zwm5ya-70" value="订单单据" style="swimlane;childLayout=stackLayout;horizontal=1;startSize=30;horizontalStack=0;rounded=1;fontSize=17;fontStyle=0;strokeWidth=2;resizeParent=0;resizeLast=1;shadow=0;dashed=0;align=center;fillColor=#60a917;strokeColor=#2D7600;fontColor=#ffffff;" vertex="1" parent="1">
          <mxGeometry x="-1041" y="200" width="191" height="160" as="geometry" />
        </mxCell>
        <mxCell id="Y3Gp17qmF-3N51zwm5ya-71" value="+Attribute1&#xa;+Attribute2&#xa;+Attribute3" style="align=left;strokeColor=none;fillColor=none;spacingLeft=4;fontSize=17;verticalAlign=top;resizable=0;rotatable=0;part=1;" vertex="1" parent="Y3Gp17qmF-3N51zwm5ya-70">
          <mxGeometry y="30" width="191" height="130" as="geometry" />
        </mxCell>
        <mxCell id="Y3Gp17qmF-3N51zwm5ya-72" value="订单项" style="swimlane;childLayout=stackLayout;horizontal=1;startSize=30;horizontalStack=0;rounded=1;fontSize=17;fontStyle=0;strokeWidth=2;resizeParent=0;resizeLast=1;shadow=0;dashed=0;align=center;fillColor=#60a917;strokeColor=#2D7600;fontColor=#ffffff;" vertex="1" parent="1">
          <mxGeometry x="-575" y="-30" width="160" height="120" as="geometry" />
        </mxCell>
        <mxCell id="Y3Gp17qmF-3N51zwm5ya-73" value="+Attribute1&#xa;+Attribute2&#xa;+Attribute3" style="align=left;strokeColor=none;fillColor=none;spacingLeft=4;fontSize=17;verticalAlign=top;resizable=0;rotatable=0;part=1;" vertex="1" parent="Y3Gp17qmF-3N51zwm5ya-72">
          <mxGeometry y="30" width="160" height="90" as="geometry" />
        </mxCell>
        <mxCell id="Y3Gp17qmF-3N51zwm5ya-74" value="合同" style="swimlane;childLayout=stackLayout;horizontal=1;startSize=30;horizontalStack=0;rounded=1;fontSize=17;fontStyle=0;strokeWidth=2;resizeParent=0;resizeLast=1;shadow=0;dashed=0;align=center;fillColor=#60a917;strokeColor=#2D7600;fontColor=#ffffff;" vertex="1" parent="1">
          <mxGeometry x="-1550" y="220" width="160" height="120" as="geometry" />
        </mxCell>
        <mxCell id="Y3Gp17qmF-3N51zwm5ya-75" value="+Attribute1&#xa;+Attribute2&#xa;+Attribute3" style="align=left;strokeColor=none;fillColor=none;spacingLeft=4;fontSize=17;verticalAlign=top;resizable=0;rotatable=0;part=1;" vertex="1" parent="Y3Gp17qmF-3N51zwm5ya-74">
          <mxGeometry y="30" width="160" height="90" as="geometry" />
        </mxCell>
        <mxCell id="Y3Gp17qmF-3N51zwm5ya-76" value="变更单据" style="swimlane;childLayout=stackLayout;horizontal=1;startSize=30;horizontalStack=0;rounded=1;fontSize=17;fontStyle=0;strokeWidth=2;resizeParent=0;resizeLast=1;shadow=0;dashed=0;align=center;fillColor=#60a917;strokeColor=#2D7600;fontColor=#ffffff;" vertex="1" parent="1">
          <mxGeometry x="-1025" y="770" width="160" height="120" as="geometry" />
        </mxCell>
        <mxCell id="Y3Gp17qmF-3N51zwm5ya-77" value="+Attribute1&#xa;+Attribute2&#xa;+Attribute3" style="align=left;strokeColor=none;fillColor=none;spacingLeft=4;fontSize=17;verticalAlign=top;resizable=0;rotatable=0;part=1;" vertex="1" parent="Y3Gp17qmF-3N51zwm5ya-76">
          <mxGeometry y="30" width="160" height="90" as="geometry" />
        </mxCell>
        <mxCell id="Y3Gp17qmF-3N51zwm5ya-88" style="edgeStyle=orthogonalEdgeStyle;rounded=0;orthogonalLoop=1;jettySize=auto;html=1;exitX=1;exitY=0.25;exitDx=0;exitDy=0;entryX=0;entryY=0.25;entryDx=0;entryDy=0;fontSize=17;" edge="1" parent="1" source="Y3Gp17qmF-3N51zwm5ya-71" target="Y3Gp17qmF-3N51zwm5ya-73">
          <mxGeometry relative="1" as="geometry" />
        </mxCell>
        <mxCell id="Y3Gp17qmF-3N51zwm5ya-93" value="1:N" style="text;html=1;strokeColor=none;fillColor=none;align=center;verticalAlign=middle;whiteSpace=wrap;rounded=0;fontSize=17;" vertex="1" parent="1">
          <mxGeometry x="-827" y="220" width="40" height="20" as="geometry" />
        </mxCell>
        <mxCell id="Y3Gp17qmF-3N51zwm5ya-94" style="edgeStyle=orthogonalEdgeStyle;rounded=0;orthogonalLoop=1;jettySize=auto;html=1;exitX=0.5;exitY=1;exitDx=0;exitDy=0;fontSize=17;startArrow=none;" edge="1" parent="1" source="Y3Gp17qmF-3N51zwm5ya-110" target="Y3Gp17qmF-3N51zwm5ya-76">
          <mxGeometry relative="1" as="geometry" />
        </mxCell>
        <mxCell id="Y3Gp17qmF-3N51zwm5ya-95" value="1：N" style="text;html=1;strokeColor=none;fillColor=none;align=center;verticalAlign=middle;whiteSpace=wrap;rounded=0;fontSize=17;" vertex="1" parent="1">
          <mxGeometry x="-940" y="400" width="50" height="20" as="geometry" />
        </mxCell>
        <mxCell id="Y3Gp17qmF-3N51zwm5ya-98" style="edgeStyle=orthogonalEdgeStyle;rounded=0;orthogonalLoop=1;jettySize=auto;html=1;exitX=0;exitY=0.5;exitDx=0;exitDy=0;entryX=1;entryY=0.5;entryDx=0;entryDy=0;fontSize=17;" edge="1" parent="1" source="Y3Gp17qmF-3N51zwm5ya-71" target="Y3Gp17qmF-3N51zwm5ya-75">
          <mxGeometry relative="1" as="geometry" />
        </mxCell>
        <mxCell id="Y3Gp17qmF-3N51zwm5ya-104" value="售后单据" style="swimlane;childLayout=stackLayout;horizontal=1;startSize=30;horizontalStack=0;rounded=1;fontSize=17;fontStyle=0;strokeWidth=2;resizeParent=0;resizeLast=1;shadow=0;dashed=0;align=center;fillColor=#60a917;strokeColor=#2D7600;fontColor=#ffffff;" vertex="1" parent="1">
          <mxGeometry x="-1025.5" y="-110" width="160" height="120" as="geometry" />
        </mxCell>
        <mxCell id="Y3Gp17qmF-3N51zwm5ya-105" value="+Attribute1&#xa;+Attribute2&#xa;+Attribute3" style="align=left;strokeColor=none;fillColor=none;spacingLeft=4;fontSize=17;verticalAlign=top;resizable=0;rotatable=0;part=1;" vertex="1" parent="Y3Gp17qmF-3N51zwm5ya-104">
          <mxGeometry y="30" width="160" height="90" as="geometry" />
        </mxCell>
        <mxCell id="Y3Gp17qmF-3N51zwm5ya-108" value="发起售后" style="shape=rhombus;perimeter=rhombusPerimeter;whiteSpace=wrap;html=1;align=center;fontSize=17;" vertex="1" parent="1">
          <mxGeometry x="-1005" y="90" width="120" height="60" as="geometry" />
        </mxCell>
        <mxCell id="Y3Gp17qmF-3N51zwm5ya-109" value="创建订单" style="shape=rhombus;perimeter=rhombusPerimeter;whiteSpace=wrap;html=1;align=center;fontSize=17;" vertex="1" parent="1">
          <mxGeometry x="-770" y="90" width="120" height="60" as="geometry" />
        </mxCell>
        <mxCell id="Y3Gp17qmF-3N51zwm5ya-110" value="订单项变更&lt;br&gt;退，换，增" style="shape=rhombus;perimeter=rhombusPerimeter;whiteSpace=wrap;html=1;align=center;fontSize=17;" vertex="1" parent="1">
          <mxGeometry x="-1020.5" y="520" width="150" height="90" as="geometry" />
        </mxCell>
        <mxCell id="Y3Gp17qmF-3N51zwm5ya-111" value="" style="edgeStyle=orthogonalEdgeStyle;rounded=0;orthogonalLoop=1;jettySize=auto;html=1;exitX=0.5;exitY=1;exitDx=0;exitDy=0;fontSize=17;endArrow=none;" edge="1" parent="1" source="Y3Gp17qmF-3N51zwm5ya-71" target="Y3Gp17qmF-3N51zwm5ya-110">
          <mxGeometry relative="1" as="geometry">
            <mxPoint x="-945.5" y="360" as="sourcePoint" />
            <mxPoint x="-945.5" y="600" as="targetPoint" />
          </mxGeometry>
        </mxCell>
        <mxCell id="Y3Gp17qmF-3N51zwm5ya-112" value="创建订单" style="shape=rhombus;perimeter=rhombusPerimeter;whiteSpace=wrap;html=1;align=center;fontSize=17;" vertex="1" parent="1">
          <mxGeometry x="-1270" y="260" width="120" height="60" as="geometry" />
        </mxCell>
        <mxCell id="Y3Gp17qmF-3N51zwm5ya-113" style="edgeStyle=orthogonalEdgeStyle;rounded=0;orthogonalLoop=1;jettySize=auto;html=1;exitX=0;exitY=0.5;exitDx=0;exitDy=0;entryX=0.5;entryY=1;entryDx=0;entryDy=0;fontSize=17;startArrow=none;" edge="1" parent="1" source="Y3Gp17qmF-3N51zwm5ya-116" target="Y3Gp17qmF-3N51zwm5ya-75">
          <mxGeometry relative="1" as="geometry" />
        </mxCell>
        <mxCell id="Y3Gp17qmF-3N51zwm5ya-116" value="变更单创建" style="shape=rhombus;perimeter=rhombusPerimeter;whiteSpace=wrap;html=1;align=center;fontSize=17;" vertex="1" parent="1">
          <mxGeometry x="-1410" y="640" width="120" height="60" as="geometry" />
        </mxCell>
        <mxCell id="Y3Gp17qmF-3N51zwm5ya-117" value="" style="edgeStyle=orthogonalEdgeStyle;rounded=0;orthogonalLoop=1;jettySize=auto;html=1;exitX=0;exitY=0.5;exitDx=0;exitDy=0;entryX=1;entryY=0.5;entryDx=0;entryDy=0;fontSize=17;endArrow=none;" edge="1" parent="1" source="Y3Gp17qmF-3N51zwm5ya-77" target="Y3Gp17qmF-3N51zwm5ya-116">
          <mxGeometry relative="1" as="geometry">
            <mxPoint x="-1025.5" y="675" as="sourcePoint" />
            <mxPoint x="-1470" y="340" as="targetPoint" />
            <Array as="points">
              <mxPoint x="-1290" y="675" />
            </Array>
          </mxGeometry>
        </mxCell>
        <mxCell id="Y3Gp17qmF-3N51zwm5ya-119" value="N:1" style="text;html=1;strokeColor=none;fillColor=none;align=center;verticalAlign=middle;whiteSpace=wrap;rounded=0;fontSize=17;" vertex="1" parent="1">
          <mxGeometry x="-1190" y="650" width="40" height="20" as="geometry" />
        </mxCell>
        <mxCell id="Y3Gp17qmF-3N51zwm5ya-120" value="N:1" style="text;html=1;strokeColor=none;fillColor=none;align=center;verticalAlign=middle;whiteSpace=wrap;rounded=0;fontSize=17;" vertex="1" parent="1">
          <mxGeometry x="-1350" y="270" width="40" height="20" as="geometry" />
        </mxCell>
        <mxCell id="Y3Gp17qmF-3N51zwm5ya-121" value="订单项明细" style="swimlane;childLayout=stackLayout;horizontal=1;startSize=30;horizontalStack=0;rounded=1;fontSize=14;fontStyle=0;strokeWidth=2;resizeParent=0;resizeLast=1;shadow=0;dashed=0;align=center;fillColor=#6d8764;strokeColor=#3A5431;fontColor=#ffffff;" vertex="1" parent="1">
          <mxGeometry x="-235" y="-30" width="160" height="120" as="geometry" />
        </mxCell>
        <mxCell id="Y3Gp17qmF-3N51zwm5ya-122" value="+Attribute1&#xa;+Attribute2&#xa;+Attribute3" style="align=left;strokeColor=none;fillColor=none;spacingLeft=4;fontSize=12;verticalAlign=top;resizable=0;rotatable=0;part=1;" vertex="1" parent="Y3Gp17qmF-3N51zwm5ya-121">
          <mxGeometry y="30" width="160" height="90" as="geometry" />
        </mxCell>
        <mxCell id="Y3Gp17qmF-3N51zwm5ya-123" style="edgeStyle=orthogonalEdgeStyle;rounded=0;orthogonalLoop=1;jettySize=auto;html=1;exitX=1;exitY=0.25;exitDx=0;exitDy=0;entryX=0;entryY=0.25;entryDx=0;entryDy=0;fontSize=17;" edge="1" parent="1" source="Y3Gp17qmF-3N51zwm5ya-73" target="Y3Gp17qmF-3N51zwm5ya-122">
          <mxGeometry relative="1" as="geometry" />
        </mxCell>
        <mxCell id="Y3Gp17qmF-3N51zwm5ya-126" value="订单项明细" style="swimlane;childLayout=stackLayout;horizontal=1;startSize=30;horizontalStack=0;rounded=1;fontSize=14;fontStyle=0;strokeWidth=2;resizeParent=0;resizeLast=1;shadow=0;dashed=0;align=center;fillColor=#6d8764;strokeColor=#3A5431;fontColor=#ffffff;" vertex="1" parent="1">
          <mxGeometry x="-1025" y="1040" width="160" height="120" as="geometry" />
        </mxCell>
        <mxCell id="Y3Gp17qmF-3N51zwm5ya-127" value="+Attribute1&#xa;+Attribute2&#xa;+Attribute3" style="align=left;strokeColor=none;fillColor=none;spacingLeft=4;fontSize=12;verticalAlign=top;resizable=0;rotatable=0;part=1;" vertex="1" parent="Y3Gp17qmF-3N51zwm5ya-126">
          <mxGeometry y="30" width="160" height="90" as="geometry" />
        </mxCell>
        <mxCell id="Y3Gp17qmF-3N51zwm5ya-129" value="1：N" style="text;html=1;strokeColor=none;fillColor=none;align=center;verticalAlign=middle;whiteSpace=wrap;rounded=0;fontSize=17;" vertex="1" parent="1">
          <mxGeometry x="-395" y="-5" width="50" height="20" as="geometry" />
        </mxCell>
        <mxCell id="Y3Gp17qmF-3N51zwm5ya-131" style="edgeStyle=orthogonalEdgeStyle;rounded=0;orthogonalLoop=1;jettySize=auto;html=1;exitX=0.5;exitY=1;exitDx=0;exitDy=0;fontSize=17;" edge="1" parent="1" source="Y3Gp17qmF-3N51zwm5ya-77" target="Y3Gp17qmF-3N51zwm5ya-126">
          <mxGeometry relative="1" as="geometry" />
        </mxCell>
        <mxCell id="Y3Gp17qmF-3N51zwm5ya-132" value="1:N" style="text;html=1;strokeColor=none;fillColor=none;align=center;verticalAlign=middle;whiteSpace=wrap;rounded=0;fontSize=17;" vertex="1" parent="1">
          <mxGeometry x="-935" y="940" width="40" height="20" as="geometry" />
        </mxCell>
        <mxCell id="Y3Gp17qmF-3N51zwm5ya-133" value="合同明细" style="swimlane;childLayout=stackLayout;horizontal=1;startSize=30;horizontalStack=0;rounded=1;fontSize=14;fontStyle=0;strokeWidth=2;resizeParent=0;resizeLast=1;shadow=0;dashed=0;align=center;fillColor=#6d8764;strokeColor=#3A5431;fontColor=#ffffff;" vertex="1" parent="1">
          <mxGeometry x="-1930" y="220" width="160" height="120" as="geometry" />
        </mxCell>
        <mxCell id="Y3Gp17qmF-3N51zwm5ya-134" value="+Attribute1&#xa;+Attribute2&#xa;+Attribute3" style="align=left;strokeColor=none;fillColor=none;spacingLeft=4;fontSize=12;verticalAlign=top;resizable=0;rotatable=0;part=1;" vertex="1" parent="Y3Gp17qmF-3N51zwm5ya-133">
          <mxGeometry y="30" width="160" height="90" as="geometry" />
        </mxCell>
        <mxCell id="Y3Gp17qmF-3N51zwm5ya-135" style="edgeStyle=orthogonalEdgeStyle;rounded=0;orthogonalLoop=1;jettySize=auto;html=1;exitX=0;exitY=0.25;exitDx=0;exitDy=0;entryX=1;entryY=0.5;entryDx=0;entryDy=0;fontSize=17;" edge="1" parent="1" source="Y3Gp17qmF-3N51zwm5ya-75" target="Y3Gp17qmF-3N51zwm5ya-133">
          <mxGeometry relative="1" as="geometry" />
        </mxCell>
        <mxCell id="Y3Gp17qmF-3N51zwm5ya-138" value="收款明细" style="swimlane;childLayout=stackLayout;horizontal=1;startSize=30;horizontalStack=0;rounded=1;fontSize=17;fontStyle=0;strokeWidth=2;resizeParent=0;resizeLast=1;shadow=0;dashed=0;align=center;fillColor=#60a917;strokeColor=#2D7600;fontColor=#ffffff;" vertex="1" parent="1">
          <mxGeometry x="-120" y="530" width="160" height="120" as="geometry" />
        </mxCell>
        <mxCell id="Y3Gp17qmF-3N51zwm5ya-139" value="+Attribute1&#xa;+Attribute2&#xa;+Attribute3" style="align=left;strokeColor=none;fillColor=none;spacingLeft=4;fontSize=17;verticalAlign=top;resizable=0;rotatable=0;part=1;" vertex="1" parent="Y3Gp17qmF-3N51zwm5ya-138">
          <mxGeometry y="30" width="160" height="90" as="geometry" />
        </mxCell>
        <mxCell id="Y3Gp17qmF-3N51zwm5ya-140" style="edgeStyle=orthogonalEdgeStyle;rounded=0;orthogonalLoop=1;jettySize=auto;html=1;exitX=1;exitY=0.5;exitDx=0;exitDy=0;entryX=0.25;entryY=0;entryDx=0;entryDy=0;fontSize=17;" edge="1" parent="1" source="Y3Gp17qmF-3N51zwm5ya-70" target="Y3Gp17qmF-3N51zwm5ya-138">
          <mxGeometry relative="1" as="geometry">
            <Array as="points">
              <mxPoint x="-80" y="280" />
            </Array>
          </mxGeometry>
        </mxCell>
        <mxCell id="Y3Gp17qmF-3N51zwm5ya-141" style="edgeStyle=orthogonalEdgeStyle;rounded=0;orthogonalLoop=1;jettySize=auto;html=1;exitX=1;exitY=0.75;exitDx=0;exitDy=0;entryX=0.166;entryY=1.016;entryDx=0;entryDy=0;fontSize=17;entryPerimeter=0;" edge="1" parent="1" source="Y3Gp17qmF-3N51zwm5ya-77" target="Y3Gp17qmF-3N51zwm5ya-139">
          <mxGeometry relative="1" as="geometry">
            <Array as="points">
              <mxPoint x="-868" y="867" />
              <mxPoint x="-868" y="860" />
              <mxPoint x="-93" y="860" />
            </Array>
          </mxGeometry>
        </mxCell>
        <mxCell id="Y3Gp17qmF-3N51zwm5ya-143" value="付款" style="shape=rhombus;perimeter=rhombusPerimeter;whiteSpace=wrap;html=1;align=center;fontSize=17;" vertex="1" parent="1">
          <mxGeometry x="-140" y="400" width="120" height="60" as="geometry" />
        </mxCell>
        <mxCell id="Y3Gp17qmF-3N51zwm5ya-144" value="付款" style="shape=rhombus;perimeter=rhombusPerimeter;whiteSpace=wrap;html=1;align=center;fontSize=17;" vertex="1" parent="1">
          <mxGeometry x="-640" y="830" width="120" height="60" as="geometry" />
        </mxCell>
        <mxCell id="Y3Gp17qmF-3N51zwm5ya-145" value="1：N" style="text;html=1;strokeColor=none;fillColor=none;align=center;verticalAlign=middle;whiteSpace=wrap;rounded=0;fontSize=17;" vertex="1" parent="1">
          <mxGeometry x="-80" y="470" width="50" height="20" as="geometry" />
        </mxCell>
        <mxCell id="Y3Gp17qmF-3N51zwm5ya-146" value="1：N" style="text;html=1;strokeColor=none;fillColor=none;align=center;verticalAlign=middle;whiteSpace=wrap;rounded=0;fontSize=17;" vertex="1" parent="1">
          <mxGeometry x="-780" y="830" width="50" height="20" as="geometry" />
        </mxCell>
        <mxCell id="Y3Gp17qmF-3N51zwm5ya-147" value="费用清单" style="swimlane;childLayout=stackLayout;horizontal=1;startSize=30;horizontalStack=0;rounded=1;fontSize=17;fontStyle=0;strokeWidth=2;resizeParent=0;resizeLast=1;shadow=0;dashed=0;align=center;fillColor=#60a917;strokeColor=#2D7600;fontColor=#ffffff;" vertex="1" parent="1">
          <mxGeometry x="-530" y="420" width="160" height="120" as="geometry" />
        </mxCell>
        <mxCell id="Y3Gp17qmF-3N51zwm5ya-148" value="+Attribute1&#xa;+Attribute2&#xa;+Attribute3" style="align=left;strokeColor=none;fillColor=none;spacingLeft=4;fontSize=17;verticalAlign=top;resizable=0;rotatable=0;part=1;" vertex="1" parent="Y3Gp17qmF-3N51zwm5ya-147">
          <mxGeometry y="30" width="160" height="90" as="geometry" />
        </mxCell>
        <mxCell id="Y3Gp17qmF-3N51zwm5ya-160" style="edgeStyle=orthogonalEdgeStyle;rounded=0;orthogonalLoop=1;jettySize=auto;html=1;exitX=1;exitY=0.75;exitDx=0;exitDy=0;entryX=0;entryY=0.25;entryDx=0;entryDy=0;fontSize=17;" edge="1" parent="1" source="Y3Gp17qmF-3N51zwm5ya-71" target="Y3Gp17qmF-3N51zwm5ya-148">
          <mxGeometry relative="1" as="geometry" />
        </mxCell>
        <mxCell id="Y3Gp17qmF-3N51zwm5ya-161" style="edgeStyle=orthogonalEdgeStyle;rounded=0;orthogonalLoop=1;jettySize=auto;html=1;exitX=1;exitY=0.25;exitDx=0;exitDy=0;entryX=-0.026;entryY=0.649;entryDx=0;entryDy=0;entryPerimeter=0;fontSize=17;" edge="1" parent="1" source="Y3Gp17qmF-3N51zwm5ya-77" target="Y3Gp17qmF-3N51zwm5ya-148">
          <mxGeometry relative="1" as="geometry">
            <Array as="points">
              <mxPoint x="-710" y="823" />
              <mxPoint x="-710" y="508" />
            </Array>
          </mxGeometry>
        </mxCell>
        <mxCell id="Y3Gp17qmF-3N51zwm5ya-162" value="变更单创建" style="shape=rhombus;perimeter=rhombusPerimeter;whiteSpace=wrap;html=1;align=center;fontSize=17;" vertex="1" parent="1">
          <mxGeometry x="-770" y="610" width="120" height="60" as="geometry" />
        </mxCell>
        <mxCell id="Y3Gp17qmF-3N51zwm5ya-163" value="变更单创建" style="shape=rhombus;perimeter=rhombusPerimeter;whiteSpace=wrap;html=1;align=center;fontSize=17;" vertex="1" parent="1">
          <mxGeometry x="-750" y="370" width="120" height="60" as="geometry" />
        </mxCell>
        <mxCell id="Y3Gp17qmF-3N51zwm5ya-164" value="1:N" style="text;html=1;strokeColor=none;fillColor=none;align=center;verticalAlign=middle;whiteSpace=wrap;rounded=0;fontSize=17;" vertex="1" parent="1">
          <mxGeometry x="-630" y="440" width="40" height="20" as="geometry" />
        </mxCell>
        <mxCell id="Y3Gp17qmF-3N51zwm5ya-170" value="1:N" style="text;html=1;strokeColor=none;fillColor=none;align=center;verticalAlign=middle;whiteSpace=wrap;rounded=0;fontSize=17;" vertex="1" parent="1">
          <mxGeometry x="-690" y="550" width="40" height="20" as="geometry" />
        </mxCell>
      </root>
    </mxGraphModel>
  </diagram>
</mxfile>
